# Rhino

mtllib collision_4.mtl
usemtl diffuse_0
v -0.40392324328422546 -0.28480368852615356 0.0089978734031319618
v -0.40392324328422546 -0.28480368852615356 -0.0089978734031319618
v -0.36477550864219666 -0.23467803001403809 0.0089978734031319618
v -0.36477550864219666 -0.23467803001403809 -0.0089978734031319618
v -0.36477550864219666 -0.23467803001403809 0.0089978734031319618
v -0.36477550864219666 -0.23467803001403809 -0.0089978734031319618
v -0.34447667002677917 -0.25331979990005493 0.0089978734031319618
v -0.34447667002677917 -0.25331979990005493 -0.0089978734031319618
v -0.34447667002677917 -0.25331979990005493 0.0089978734031319618
v -0.34447667002677917 -0.25331979990005493 -0.0089978734031319618
v -0.39195153117179871 -0.29228600859642029 0.0089978734031319618
v -0.39195153117179871 -0.29228600859642029 -0.0089978734031319618
v -0.39195153117179871 -0.29228600859642029 0.0089978734031319618
v -0.39195153117179871 -0.29228600859642029 -0.0089978734031319618
v -0.40392324328422546 -0.28480368852615356 0.0089978734031319618
v -0.40392324328422546 -0.28480368852615356 -0.0089978734031319618
v -0.40392324328422546 -0.28480368852615356 0.0089978734031319618
v -0.36477550864219666 -0.23467803001403809 0.0089978734031319618
v -0.34447667002677917 -0.25331979990005493 0.0089978734031319618
v -0.39195153117179871 -0.29228600859642029 0.0089978734031319618
v -0.40392324328422546 -0.28480368852615356 -0.0089978734031319618
v -0.36477550864219666 -0.23467803001403809 -0.0089978734031319618
v -0.34447667002677917 -0.25331979990005493 -0.0089978734031319618
v -0.39195153117179871 -0.29228600859642029 -0.0089978734031319618
vt 0 0
vt 0 0.62335890531539917
vt 0.3014872670173645 0
vt 0.3014872670173645 0.62335890531539917
vt 0.3014872670173645 0
vt 0.3014872670173645 0.62335890531539917
vt 0.46914243698120117 0
vt 0.46914243698120117 0.62335890531539917
vt 0.46914243698120117 0
vt 0.46914243698120117 0.62335890531539917
vt 0.83094912767410278 0
vt 0.83094912767410278 0.62335890531539917
vt 0.83094912767410278 0
vt 0.83094912767410278 0.62335890531539917
vt 1 0
vt 1 0.62335890531539917
vt 0 1
vt 0.38153740763664246 1
vt 0.3683534562587738 0.62335950136184692
vt 0.008829222060739994 0.80750501155853271
vt 0.61846256256103516 0.62335950136184692
vt 1 0.62335950136184692
vt 0.98681604862213135 1
vt 0.62729179859161377 0.81585454940795898
vn -0.78812313079833984 0.61551761627197266 0
vn -0.78812313079833984 0.61551761627197266 0
vn -0.78812313079833984 0.61551761627197266 0
vn -0.78812313079833984 0.61551761627197266 0
vn 0.67640501260757446 0.7365298867225647 0
vn 0.67640501260757446 0.7365298867225647 0
vn 0.67640501260757446 0.7365298867225647 0
vn 0.67640501260757446 0.7365298867225647 0
vn 0.63443797826766968 -0.77297377586364746 0
vn 0.63443797826766968 -0.77297377586364746 0
vn 0.63443797826766968 -0.77297377586364746 0
vn 0.63443797826766968 -0.77297377586364746 0
vn -0.52999895811080933 -0.84799832105636597 0
vn -0.52999895811080933 -0.84799832105636597 0
vn -0.52999895811080933 -0.84799832105636597 0
vn -0.52999895811080933 -0.84799832105636597 0
vn 0 0 1
vn 0 0 1
vn 0 0 1
vn 0 0 1
vn 0 0 -1
vn 0 0 -1
vn 0 0 -1
vn 0 0 -1
f 1/1/1 3/3/3 4/4/4
f 5/5/5 7/7/7 8/8/8
f 9/9/9 11/11/11 12/12/12
f 13/13/13 15/15/15 16/16/16
f 18/18/18 17/17/17 20/20/20
f 20/20/20 19/19/19 18/18/18
f 22/22/22 24/24/24 21/21/21
f 24/24/24 22/22/22 23/23/23
f 1/1/1 4/4/4 2/2/2
f 5/5/5 8/8/8 6/6/6
f 9/9/9 12/12/12 10/10/10
f 13/13/13 16/16/16 14/14/14
