# Rhino

mtllib collision_3.mtl
usemtl diffuse_0
v -0.056391812860965729 0.010095320641994476 -0.042500164359807968
v -0.056391812860965729 9.5320421678479761E-05 -0.042500164359807968
v 0.037303023040294647 0.010095320641994476 -0.042500164359807968
v 0.037303023040294647 9.5320421678479761E-05 -0.042500164359807968
v 0.037303023040294647 0.010095320641994476 -0.042500164359807968
v 0.037303023040294647 9.5320421678479761E-05 -0.042500164359807968
v 0.037303023040294647 0.010095320641994476 0.042499903589487076
v 0.037303023040294647 9.5320421678479761E-05 0.042499903589487076
v 0.037303023040294647 0.010095320641994476 0.042499903589487076
v 0.037303023040294647 9.5320421678479761E-05 0.042499903589487076
v -0.056391812860965729 0.010095320641994476 0.042499903589487076
v -0.056391812860965729 9.5320421678479761E-05 0.042499903589487076
v -0.056391812860965729 0.010095320641994476 0.042499903589487076
v -0.056391812860965729 9.5320421678479761E-05 0.042499903589487076
v -0.056391812860965729 0.010095320641994476 -0.042500164359807968
v -0.056391812860965729 9.5320421678479761E-05 -0.042500164359807968
v -0.056391812860965729 0.010095320641994476 -0.042500164359807968
v 0.037303023040294647 0.010095320641994476 -0.042500164359807968
v 0.037303023040294647 0.010095320641994476 0.042499903589487076
v -0.056391812860965729 0.010095320641994476 0.042499903589487076
v -0.056391812860965729 9.5320421678479761E-05 -0.042500164359807968
v 0.037303023040294647 9.5320421678479761E-05 -0.042500164359807968
v 0.037303023040294647 9.5320421678479761E-05 0.042499903589487076
v -0.056391812860965729 9.5320421678479761E-05 0.042499903589487076
vt 0 0
vt 0 0.52777749300003052
vt 0.23374395072460175 0
vt 0.23374395072460175 0.52777749300003052
vt 0.23374395072460175 0
vt 0.23374395072460175 0.52777749300003052
vt 0.5 0
vt 0.5 0.52777749300003052
vt 0.5 0
vt 0.5 0.52777749300003052
vt 0.73374396562576294 0
vt 0.73374396562576294 0.52777749300003052
vt 0.73374396562576294 0
vt 0.73374396562576294 0.52777749300003052
vt 1 0
vt 1 0.52777749300003052
vt 0 1
vt 0.26216426491737366 1
vt 0.26216426491737366 0.5277780294418335
vt 0 0.5277780294418335
vt 0.73783576488494873 0.5277780294418335
vt 1 0.5277780294418335
vt 1 1
vt 0.73783576488494873 1
vn 0 0 -1
vn 0 0 -1
vn 0 0 -1
vn 0 0 -1
vn 1 0 0
vn 1 0 0
vn 1 0 0
vn 1 0 0
vn 0 0 1
vn 0 0 1
vn 0 0 1
vn 0 0 1
vn -1 0 0
vn -1 0 0
vn -1 0 0
vn -1 0 0
vn 0 1 0
vn 0 1 0
vn 0 1 0
vn 0 1 0
vn 0 -1 0
vn 0 -1 0
vn 0 -1 0
vn 0 -1 0
f 1/1/1 3/3/3 4/4/4
f 5/5/5 7/7/7 8/8/8
f 9/9/9 11/11/11 12/12/12
f 13/13/13 15/15/15 16/16/16
f 18/18/18 17/17/17 20/20/20
f 20/20/20 19/19/19 18/18/18
f 22/22/22 24/24/24 21/21/21
f 24/24/24 22/22/22 23/23/23
f 1/1/1 4/4/4 2/2/2
f 5/5/5 8/8/8 6/6/6
f 9/9/9 12/12/12 10/10/10
f 13/13/13 16/16/16 14/14/14
