# Rhino

mtllib collision_1.mtl
usemtl diffuse_0
v -0.037317819893360138 9.5320421678479761E-05 0.048788752406835556
v -0.037317819893360138 9.5320421678479761E-05 -0.048788752406835556
v -0.12566746771335602 -0.092622376978397369 0.048788752406835556
v -0.12566746771335602 -0.092622376978397369 -0.048788752406835556
v -0.12566746771335602 -0.092622376978397369 0.048788752406835556
v -0.12566746771335602 -0.092622376978397369 -0.048788752406835556
v -0.30962961912155151 -0.2662729024887085 0.048788752406835556
v -0.30962961912155151 -0.2662729024887085 -0.048788752406835556
v -0.30962961912155151 -0.2662729024887085 0.048788752406835556
v -0.30962961912155151 -0.2662729024887085 -0.048788752406835556
v -0.34668022394180298 -0.2633858323097229 0.048788752406835556
v -0.34668022394180298 -0.2633858323097229 -0.048788752406835556
v -0.34668022394180298 -0.2633858323097229 0.048788752406835556
v -0.34668022394180298 -0.2633858323097229 -0.048788752406835556
v -0.37843790650367737 -0.2316281646490097 0.048788752406835556
v -0.37843790650367737 -0.2316281646490097 -0.048788752406835556
v -0.37843790650367737 -0.2316281646490097 0.048788752406835556
v -0.37843790650367737 -0.2316281646490097 -0.048788752406835556
v -0.37410733103752136 -0.19457754492759705 0.048788752406835556
v -0.37410733103752136 -0.19457754492759705 -0.048788752406835556
v -0.37410733103752136 -0.19457754492759705 0.048788752406835556
v -0.37410733103752136 -0.19457754492759705 -0.048788752406835556
v -0.213875412940979 -0.0045126820914447308 0.048788752406835556
v -0.213875412940979 -0.0045126820914447308 -0.048788752406835556
v -0.213875412940979 -0.0045126820914447308 0.048788752406835556
v -0.213875412940979 -0.0045126820914447308 -0.048788752406835556
v -0.1599290668964386 0.044021181762218475 0.048788752406835556
v -0.1599290668964386 0.044021181762218475 -0.048788752406835556
v -0.1599290668964386 0.044021181762218475 0.048788752406835556
v -0.1599290668964386 0.044021181762218475 -0.048788752406835556
v -0.10096800327301025 0.073369100689888 0.048788752406835556
v -0.10096800327301025 0.073369100689888 -0.048788752406835556
v -0.10096800327301025 0.073369100689888 0.048788752406835556
v -0.10096800327301025 0.073369100689888 -0.048788752406835556
v -0.03670116513967514 0.093047693371772766 0.048788752406835556
v -0.03670116513967514 0.093047693371772766 -0.048788752406835556
v -0.03670116513967514 0.093047693371772766 0.048788752406835556
v -0.03670116513967514 0.093047693371772766 -0.048788752406835556
v -0.017195062711834908 0.074295952916145325 0.048788752406835556
v -0.017195062711834908 0.074295952916145325 -0.048788752406835556
v -0.017195062711834908 0.074295952916145325 0.048788752406835556
v -0.017195062711834908 0.074295952916145325 -0.048788752406835556
v -0.037317819893360138 9.5320421678479761E-05 0.048788752406835556
v -0.037317819893360138 9.5320421678479761E-05 -0.048788752406835556
v -0.037317819893360138 9.5320421678479761E-05 0.048788752406835556
v -0.12566746771335602 -0.092622376978397369 0.048788752406835556
v -0.30962961912155151 -0.2662729024887085 0.048788752406835556
v -0.34668022394180298 -0.2633858323097229 0.048788752406835556
v -0.37843790650367737 -0.2316281646490097 0.048788752406835556
v -0.37410733103752136 -0.19457754492759705 0.048788752406835556
v -0.213875412940979 -0.0045126820914447308 0.048788752406835556
v -0.1599290668964386 0.044021181762218475 0.048788752406835556
v -0.10096800327301025 0.073369100689888 0.048788752406835556
v -0.03670116513967514 0.093047693371772766 0.048788752406835556
v -0.017195062711834908 0.074295952916145325 0.048788752406835556
v -0.037317819893360138 9.5320421678479761E-05 -0.048788752406835556
v -0.12566746771335602 -0.092622376978397369 -0.048788752406835556
v -0.30962961912155151 -0.2662729024887085 -0.048788752406835556
v -0.34668022394180298 -0.2633858323097229 -0.048788752406835556
v -0.37843790650367737 -0.2316281646490097 -0.048788752406835556
v -0.37410733103752136 -0.19457754492759705 -0.048788752406835556
v -0.213875412940979 -0.0045126820914447308 -0.048788752406835556
v -0.1599290668964386 0.044021181762218475 -0.048788752406835556
v -0.10096800327301025 0.073369100689888 -0.048788752406835556
v -0.03670116513967514 0.093047693371772766 -0.048788752406835556
v -0.017195062711834908 0.074295952916145325 -0.048788752406835556
vt 0 0
vt 0 0.64067387580871582
vt 0.12041419744491577 0
vt 0.12041419744491577 0.64067387580871582
vt 0.12041419744491577 0
vt 0.12041419744491577 0.64067387580871582
vt 0.3582649827003479 0
vt 0.3582649827003479 0.64067387580871582
vt 0.3582649827003479 0
vt 0.3582649827003479 0.64067387580871582
vt 0.39320605993270874 0
vt 0.39320605993270874 0.64067387580871582
vt 0.39320605993270874 0
vt 0.39320605993270874 0.64067387580871582
vt 0.435433030128479 0
vt 0.435433030128479 0.64067387580871582
vt 0.435433030128479 0
vt 0.435433030128479 0.64067387580871582
vt 0.47050565481185913 0
vt 0.47050565481185913 0.64067387580871582
vt 0.47050565481185913 0
vt 0.47050565481185913 0.64067387580871582
vt 0.70423686504364014 0
vt 0.70423686504364014 0.64067387580871582
vt 0.70423686504364014 0
vt 0.70423686504364014 0.64067387580871582
vt 0.77590614557266235 0
vt 0.77590614557266235 0.64067387580871582
vt 0.77590614557266235 0
vt 0.77590614557266235 0.64067387580871582
vt 0.83579695224761963 0
vt 0.83579695224761963 0.64067387580871582
vt 0.83579695224761963 0
vt 0.83579695224761963 0.64067387580871582
vt 0.90029537677764893 0
vt 0.90029537677764893 0.64067387580871582
vt 0.90029537677764893 0
vt 0.90029537677764893 0.64067387580871582
vt 0.92837202548980713 0
vt 0.92837202548980713 0.64067387580871582
vt 0.92837202548980713 0
vt 0.92837202548980713 0.64067387580871582
vt 1 0
vt 1 0.64067387580871582
vt 0.061937578022480011 0.98045772314071655
vt 0.18275019526481628 1
vt 0.42172285914421082 1
vt 0.44530239701271057 0.920615553855896
vt 0.44652524590492249 0.79117274284362793
vt 0.4195253849029541 0.72205835580825806
vt 0.18621036410331726 0.64067453145980835
vt 0.11768122762441635 0.64568287134170532
vt 0.058148141950368881 0.70084434747695923
vt 0.0012402429711073637 0.7867811918258667
vt 0 0.86470544338226318
vt 0.061937578022480011 0.66021674871444702
vt 0.18275019526481628 0.64067453145980835
vt 0.42172285914421082 0.64067453145980835
vt 0.44530239701271057 0.72005897760391235
vt 0.44652524590492249 0.84950178861618042
vt 0.4195253849029541 0.91861617565155029
vt 0.18621036410331726 1
vt 0.11768122762441635 0.99499166011810303
vt 0.058148141950368881 0.93983012437820435
vt 0.0012402429711073637 0.85389333963394165
vt 0 0.77596908807754517
vn 0.72395431995391846 -0.68984794616699219 0
vn 0.72395431995391846 -0.68984794616699219 0
vn 0.72395431995391846 -0.68984794616699219 0
vn 0.72395431995391846 -0.68984794616699219 0
vn 0.6864323616027832 -0.72719365358352661 0
vn 0.6864323616027832 -0.72719365358352661 0
vn 0.6864323616027832 -0.72719365358352661 0
vn 0.6864323616027832 -0.72719365358352661 0
vn -0.077686585485935211 -0.99697780609130859 0
vn -0.077686585485935211 -0.99697780609130859 0
vn -0.077686585485935211 -0.99697780609130859 0
vn -0.077686585485935211 -0.99697780609130859 0
vn -0.70710676908493042 -0.70710676908493042 0
vn -0.70710676908493042 -0.70710676908493042 0
vn -0.70710676908493042 -0.70710676908493042 0
vn -0.70710676908493042 -0.70710676908493042 0
vn -0.99323838949203491 0.11609279364347458 0
vn -0.99323838949203491 0.11609279364347458 0
vn -0.99323838949203491 0.11609279364347458 0
vn -0.99323838949203491 0.11609279364347458 0
vn -0.76455974578857422 0.64455288648605347 0
vn -0.76455974578857422 0.64455288648605347 0
vn -0.76455974578857422 0.64455288648605347 0
vn -0.76455974578857422 0.64455288648605347 0
vn -0.66882878541946411 0.74341648817062378 0
vn -0.66882878541946411 0.74341648817062378 0
vn -0.66882878541946411 0.74341648817062378 0
vn -0.66882878541946411 0.74341648817062378 0
vn -0.44560202956199646 0.89523118734359741 0
vn -0.44560202956199646 0.89523118734359741 0
vn -0.44560202956199646 0.89523118734359741 0
vn -0.44560202956199646 0.89523118734359741 0
vn -0.29278326034545898 0.95617884397506714 0
vn -0.29278326034545898 0.95617884397506714 0
vn -0.29278326034545898 0.95617884397506714 0
vn -0.29278326034545898 0.95617884397506714 0
vn 0.69302940368652344 0.72090935707092285 0
vn 0.69302940368652344 0.72090935707092285 0
vn 0.69302940368652344 0.72090935707092285 0
vn 0.69302940368652344 0.72090935707092285 0
vn 0.96513849496841431 -0.26173967123031616 0
vn 0.96513849496841431 -0.26173967123031616 0
vn 0.96513849496841431 -0.26173967123031616 0
vn 0.96513849496841431 -0.26173967123031616 0
vn 0 0 1
vn 0 0 1
vn 0 0 1
vn 0 0 1
vn 0 0 1
vn 0 0 1
vn 0 0 1
vn 0 0 1
vn 0 0 1
vn 0 0 1
vn 0 0 1
vn 0 0 -1
vn 0 0 -1
vn 0 0 -1
vn 0 0 -1
vn 0 0 -1
vn 0 0 -1
vn 0 0 -1
vn 0 0 -1
vn 0 0 -1
vn 0 0 -1
vn 0 0 -1
f 1/1/1 3/3/3 4/4/4
f 5/5/5 7/7/7 8/8/8
f 9/9/9 11/11/11 12/12/12
f 13/13/13 15/15/15 16/16/16
f 17/17/17 19/19/19 20/20/20
f 21/21/21 23/23/23 24/24/24
f 25/25/25 27/27/27 28/28/28
f 29/29/29 31/31/31 32/32/32
f 33/33/33 35/35/35 36/36/36
f 37/37/37 39/39/39 40/40/40
f 41/41/41 43/43/43 44/44/44
f 53/53/53 45/45/45 55/55/55
f 54/54/54 53/53/53 55/55/55
f 52/52/52 45/45/45 53/53/53
f 52/52/52 46/46/46 45/45/45
f 47/47/47 46/46/46 50/50/50
f 48/48/48 47/47/47 50/50/50
f 51/51/51 50/50/50 46/46/46
f 49/49/49 48/48/48 50/50/50
f 52/52/52 51/51/51 46/46/46
f 64/64/64 66/66/66 56/56/56
f 65/65/65 66/66/66 64/64/64
f 63/63/63 64/64/64 56/56/56
f 63/63/63 56/56/56 57/57/57
f 58/58/58 61/61/61 57/57/57
f 59/59/59 61/61/61 58/58/58
f 62/62/62 57/57/57 61/61/61
f 60/60/60 61/61/61 59/59/59
f 63/63/63 57/57/57 62/62/62
f 1/1/1 4/4/4 2/2/2
f 5/5/5 8/8/8 6/6/6
f 9/9/9 12/12/12 10/10/10
f 13/13/13 16/16/16 14/14/14
f 17/17/17 20/20/20 18/18/18
f 21/21/21 24/24/24 22/22/22
f 25/25/25 28/28/28 26/26/26
f 29/29/29 32/32/32 30/30/30
f 33/33/33 36/36/36 34/34/34
f 37/37/37 40/40/40 38/38/38
f 41/41/41 44/44/44 42/42/42
